<svg width="160" height="36" viewBox="0 0 160 36" fill="none" xmlns="http://www.w3.org/2000/svg">
<g clip-path="url(#clip0_13412_19954)">
<circle cx="18" cy="18" r="18" fill="#4AC63F"/>
<mask id="mask0_13412_19954" style="mask-type:alpha" maskUnits="userSpaceOnUse" x="0" y="0" width="36" height="36">
<circle cx="18" cy="18" r="18" fill="#4AC63F"/>
</mask>
<g mask="url(#mask0_13412_19954)">
<circle cx="29.8125" cy="7.3125" r="16.3125" fill="#F6C92D"/>
</g>
<path fill-rule="evenodd" clip-rule="evenodd" d="M19.1761 4.61293C18.4874 4.85855 18.0404 5.28232 17.7104 6.0022C17.4722 6.52207 17.4618 7.27019 17.685 7.84174C17.8957 8.3814 18.4342 8.9473 18.9708 9.19299C19.3325 9.35862 19.4705 9.38466 19.9886 9.38519C20.4989 9.38566 20.6446 9.35935 20.9688 9.2083C22.8867 8.31467 22.9274 5.62311 21.0368 4.71842C20.5284 4.4752 19.6947 4.42791 19.1761 4.61293ZM18.2237 10.2539C18.0589 10.3082 17.0998 10.7842 16.0925 11.3117C14.1933 12.3061 13.7585 12.6033 13.4658 13.107C13.283 13.4217 11.8965 17.8662 11.8971 18.1359C11.8978 18.4728 12.0383 18.8156 12.2708 19.0481L12.5047 19.282L12.2686 20.3554C12.1387 20.9458 12.021 21.4403 12.0069 21.4544C11.9929 21.4684 11.4154 21.3578 10.7236 21.2086C9.60645 20.9675 9.43236 20.9455 9.16616 21.0117C8.60936 21.15 8.34144 21.3684 8.12325 22.0094C8.0845 22.1233 8.04732 22.2504 8.01036 22.3928C8.01036 22.7298 7.10058 23.5663 7.10058 23.5663L7.73962 23.5927L6.29889 25.2859H7.32133L7.03087 25.8088L5.625 26.7731C5.625 26.7731 7.13123 26.5893 7.10058 26.7731C7.0337 27.1742 6.84621 28.1102 6.86275 28.2204C6.94813 28.7901 7.50497 29.3141 8.14273 29.4249C8.33906 29.4591 8.35798 29.4438 8.46407 29.166C8.59454 28.8243 9.06127 28.3804 9.41145 28.2649C9.81864 28.1305 10.4384 28.2118 10.8214 28.4499L11.1572 28.6587L11.263 28.1807C11.3212 27.9178 11.7666 25.8446 12.2529 23.5736C13.1192 19.5273 13.1402 19.444 13.2994 19.424C13.6392 19.3815 13.8786 19.2676 14.0923 19.0471C14.2887 18.8445 14.3896 18.5727 14.9883 16.6341L15.663 14.4494L16.0601 14.2377C16.2785 14.1212 16.4665 14.0353 16.4779 14.0467C16.4893 14.0581 16.3597 15.0375 16.1898 16.2231C15.8301 18.7343 15.8175 19.3225 16.11 19.9614C16.3798 20.5506 16.5222 20.6853 20.1698 23.8017C20.1962 23.8243 20.309 25.0859 20.4204 26.6052C20.5318 28.1246 20.6561 29.4939 20.6966 29.648C20.8579 30.2615 21.4952 30.7342 22.1575 30.7316C23.0224 30.7281 23.6845 30.0586 23.6852 29.1867C23.6858 28.3577 23.278 23.2803 23.1808 22.9076C23.0138 22.2668 22.7781 21.9825 21.4968 20.8763C20.2958 19.8395 20.0219 19.5224 20.0219 19.1685C20.0219 19.0635 20.2317 17.4943 20.4881 15.6815C20.7445 13.8687 20.9543 12.2742 20.9543 12.138C20.9543 11.5172 20.4601 10.7377 19.8337 10.3706C19.4655 10.1549 18.694 10.0989 18.2237 10.2539ZM21.2599 15.0465C21.1582 15.791 21.0703 16.4462 21.0646 16.5023C21.0548 16.5984 23.6349 18.6437 24.0202 18.8452C25.1081 19.4142 26.2889 18.2425 25.7328 17.1457C25.6074 16.8982 25.2903 16.6252 23.7848 15.4682C22.7958 14.7081 21.8647 13.9977 21.7157 13.8895L21.4449 13.6928L21.2599 15.0465ZM15.3372 22.7504C15.0149 23.7526 14.4386 25.543 14.0566 26.729C13.5403 28.3317 13.3623 28.973 13.3634 29.2265C13.3694 30.629 15.1298 31.268 16.0442 30.1997C16.2055 30.0113 16.3437 29.6945 16.5719 28.9901C17.7084 25.4823 18.4333 23.1958 18.4134 23.1816C18.1909 23.0233 16.04 21.1228 15.9912 21.0415C15.9381 20.9529 15.7956 21.3252 15.3372 22.7504ZM9.45248 28.9948C8.86713 29.3626 8.89917 30.3229 9.50722 30.6373C9.80632 30.792 10.3139 30.7374 10.54 30.5262C11.0149 30.0824 11.0143 29.5183 10.5383 29.0736C10.2966 28.8478 9.74958 28.8081 9.45248 28.9948Z" fill="#FCFCFD"/>
</g>
<path d="M59.7924 8.654V11.705H54.7704V27.5H50.9904V11.705H45.9684V8.654H59.7924ZM65.7904 14.864C66.2764 14.072 66.9064 13.451 67.6804 13.001C68.4724 12.551 69.3724 12.326 70.3804 12.326V16.295H69.3814C68.1934 16.295 67.2934 16.574 66.6814 17.132C66.0874 17.69 65.7904 18.662 65.7904 20.048V27.5H62.0104V12.542H65.7904V14.864ZM74.3034 10.76C73.6374 10.76 73.0794 10.553 72.6294 10.139C72.1974 9.707 71.9814 9.176 71.9814 8.546C71.9814 7.916 72.1974 7.394 72.6294 6.98C73.0794 6.548 73.6374 6.332 74.3034 6.332C74.9694 6.332 75.5184 6.548 75.9504 6.98C76.4004 7.394 76.6254 7.916 76.6254 8.546C76.6254 9.176 76.4004 9.707 75.9504 10.139C75.5184 10.553 74.9694 10.76 74.3034 10.76ZM76.1664 12.542V27.5H72.3864V12.542H76.1664ZM83.1411 14.702C83.6271 14.018 84.2931 13.451 85.1391 13.001C86.0031 12.533 86.9841 12.299 88.0821 12.299C89.3601 12.299 90.5121 12.614 91.5381 13.244C92.5821 13.874 93.4011 14.774 93.9951 15.944C94.6071 17.096 94.9131 18.437 94.9131 19.967C94.9131 21.497 94.6071 22.856 93.9951 24.044C93.4011 25.214 92.5821 26.123 91.5381 26.771C90.5121 27.419 89.3601 27.743 88.0821 27.743C86.9841 27.743 86.0121 27.518 85.1661 27.068C84.3381 26.618 83.6631 26.051 83.1411 25.367V34.628H79.3611V12.542H83.1411V14.702ZM91.0521 19.967C91.0521 19.067 90.8631 18.293 90.4851 17.645C90.1251 16.979 89.6391 16.475 89.0271 16.133C88.4331 15.791 87.7851 15.62 87.0831 15.62C86.3991 15.62 85.7511 15.8 85.1391 16.16C84.5451 16.502 84.0591 17.006 83.6811 17.672C83.3211 18.338 83.1411 19.121 83.1411 20.021C83.1411 20.921 83.3211 21.704 83.6811 22.37C84.0591 23.036 84.5451 23.549 85.1391 23.909C85.7511 24.251 86.3991 24.422 87.0831 24.422C87.7851 24.422 88.4331 24.242 89.0271 23.882C89.6391 23.522 90.1251 23.009 90.4851 22.343C90.8631 21.677 91.0521 20.885 91.0521 19.967ZM99.0369 10.76C98.3709 10.76 97.8129 10.553 97.3629 10.139C96.9309 9.707 96.7149 9.176 96.7149 8.546C96.7149 7.916 96.9309 7.394 97.3629 6.98C97.8129 6.548 98.3709 6.332 99.0369 6.332C99.7029 6.332 100.252 6.548 100.684 6.98C101.134 7.394 101.359 7.916 101.359 8.546C101.359 9.176 101.134 9.707 100.684 10.139C100.252 10.553 99.7029 10.76 99.0369 10.76ZM100.9 12.542V27.5H97.1199V12.542H100.9ZM118 19.697C118 20.237 117.964 20.723 117.892 21.155H106.957C107.047 22.235 107.425 23.081 108.091 23.693C108.757 24.305 109.576 24.611 110.548 24.611C111.952 24.611 112.951 24.008 113.545 22.802H117.622C117.19 24.242 116.362 25.43 115.138 26.366C113.914 27.284 112.411 27.743 110.629 27.743C109.189 27.743 107.893 27.428 106.741 26.798C105.607 26.15 104.716 25.241 104.068 24.071C103.438 22.901 103.123 21.551 103.123 20.021C103.123 18.473 103.438 17.114 104.068 15.944C104.698 14.774 105.58 13.874 106.714 13.244C107.848 12.614 109.153 12.299 110.629 12.299C112.051 12.299 113.32 12.605 114.436 13.217C115.57 13.829 116.443 14.702 117.055 15.836C117.685 16.952 118 18.239 118 19.697ZM114.085 18.617C114.067 17.645 113.716 16.871 113.032 16.295C112.348 15.701 111.511 15.404 110.521 15.404C109.585 15.404 108.793 15.692 108.145 16.268C107.515 16.826 107.128 17.609 106.984 18.617H114.085Z" fill="#23262F"/>
<rect x="159" width="1" height="36" fill="#E6E8EC"/>
<defs>
<clipPath id="clip0_13412_19954">
<rect width="36" height="36" fill="white"/>
</clipPath>
</defs>
</svg>
